<svg width="17" height="16" viewBox="0 0 17 16" fill="none" xmlns="http://www.w3.org/2000/svg">
<path fill-rule="evenodd" clip-rule="evenodd" d="M8.54591 0.293304C4.29734 0.293304 0.856201 3.73445 0.856201 7.98301C0.856201 11.3857 3.05738 14.2597 6.11404 15.2786C6.49852 15.3459 6.6427 15.1152 6.6427 14.9134C6.6427 14.7307 6.63309 14.1252 6.63309 13.4811C4.70105 13.8368 4.20122 13.0102 4.04743 12.5776C3.96092 12.3565 3.58605 11.6741 3.25923 11.4914C2.99009 11.3473 2.60561 10.9916 3.24962 10.982C3.85519 10.9724 4.28773 11.5395 4.43191 11.7702C5.12399 12.9333 6.22938 12.6064 6.67154 12.4046C6.73882 11.9048 6.94068 11.5683 7.16176 11.3761C5.4508 11.1838 3.66294 10.5206 3.66294 7.5793C3.66294 6.74304 3.96092 6.05097 4.45114 5.51269C4.37424 5.32045 4.1051 4.53225 4.52803 3.47492C4.52803 3.47492 5.17205 3.27306 6.6427 4.26311C7.25788 4.0901 7.9115 4.00359 8.56513 4.00359C9.21875 4.00359 9.87238 4.0901 10.4876 4.26311C11.9582 3.26345 12.6022 3.47492 12.6022 3.47492C13.0252 4.53225 12.756 5.32045 12.6791 5.51269C13.1693 6.05097 13.4673 6.73343 13.4673 7.5793C13.4673 10.5302 11.6698 11.1838 9.95889 11.3761C10.2376 11.6164 10.4779 12.0778 10.4779 12.7987C10.4779 13.8272 10.4683 14.6538 10.4683 14.9134C10.4683 15.1152 10.6125 15.3555 10.997 15.2786C14.0344 14.2597 16.2356 11.3761 16.2356 7.98301C16.2356 3.73445 12.7945 0.293304 8.54591 0.293304Z" fill="#1B1F23"/>
</svg>
