<svg width="17" height="16" viewBox="0 0 17 16" fill="none" xmlns="http://www.w3.org/2000/svg">
<path d="M16.4889 8.87014L15.5768 6.06685L13.7719 0.506575C13.7511 0.444542 13.7114 0.390608 13.6583 0.352395C13.6052 0.314182 13.5414 0.293623 13.476 0.293623C13.4106 0.293623 13.3468 0.314182 13.2937 0.352395C13.2406 0.390608 13.2009 0.444542 13.1801 0.506575L11.3752 6.06348H5.37845L3.57358 0.506575C3.55293 0.444482 3.51326 0.390466 3.46019 0.352186C3.40712 0.313905 3.34334 0.293304 3.27791 0.293304C3.21247 0.293304 3.1487 0.313905 3.09563 0.352186C3.04256 0.390466 3.00289 0.444482 2.98224 0.506575L1.18026 6.06348L0.268182 8.87014C0.227662 8.99475 0.22758 9.12899 0.267949 9.25365C0.308319 9.37831 0.387072 9.48701 0.492947 9.56421L8.37756 15.2933L16.2607 9.56421C16.3671 9.48736 16.4464 9.37885 16.4874 9.25419C16.5284 9.12953 16.5289 8.99511 16.4889 8.87014Z" fill="#FC6D26"/>
<path d="M8.37683 15.2889L11.375 6.06296H5.38013L8.37683 15.2889Z" fill="#E24329"/>
<path d="M8.37689 15.2889L5.37777 6.06296H1.18152L8.37689 15.2889Z" fill="#FC6D26"/>
<path d="M1.17813 6.06589L0.266046 8.86918C0.225525 8.99379 0.225444 9.12802 0.265813 9.25268C0.306183 9.37734 0.384936 9.48605 0.490811 9.56325L8.37687 15.2933L1.17813 6.06589Z" fill="#FCA326"/>
<path d="M1.17969 6.06588H5.38125L3.573 0.509461C3.55222 0.447429 3.51247 0.393494 3.45938 0.355281C3.40628 0.317068 3.34251 0.296509 3.27709 0.296509C3.21167 0.296509 3.14791 0.317068 3.09481 0.355281C3.04171 0.393494 3.00196 0.447429 2.98118 0.509461L1.17969 6.06588Z" fill="#E24329"/>
<path d="M8.37683 15.2889L11.375 6.06296H15.578L8.37683 15.2889Z" fill="#FC6D26"/>
<path d="M15.5751 6.06589L16.4872 8.86918C16.5279 8.99377 16.5281 9.12808 16.4877 9.25279C16.4473 9.3775 16.3685 9.48619 16.2624 9.56325L8.37683 15.289L15.5732 6.06589H15.5751Z" fill="#FCA326"/>
<path d="M15.5772 6.06592H11.3761L13.181 0.509505C13.2016 0.447412 13.2413 0.393396 13.2944 0.355115C13.3474 0.316835 13.4112 0.296234 13.4766 0.296234C13.5421 0.296234 13.6058 0.316835 13.6589 0.355115C13.712 0.393396 13.7517 0.447412 13.7723 0.509505L15.5772 6.06592Z" fill="#E24329"/>
</svg>
